<svg xmlns="http://www.w3.org/2000/svg" version="1.1" xmlns:xlink="http://www.w3.org/1999/xlink" width="24" height="24" x="0" y="0" viewBox="0 0 512 512" style="enable-background:new 0 0 512 512" xml:space="preserve" class=""><g><path d="M456.313 85.333h-20.677a10.693 10.693 0 0 0-8.063 3.677 10.683 10.683 0 0 0-2.5 8.5c1.083 7.583 1.594 13.885 1.594 19.823C426.667 193.792 364.458 256 288 256s-138.667-62.208-138.667-138.667c0-5.938.51-12.24 1.594-19.823a10.682 10.682 0 0 0-2.5-8.5 10.691 10.691 0 0 0-8.063-3.677h-24.758l-8.665-27.698a21.341 21.341 0 0 0-20.368-14.969H32c-5.891 0-10.667 4.775-10.667 10.667v21.333c0 5.891 4.776 10.667 10.667 10.667h38.896l67.431 215.507-31.66 31.66c-12.25 12.24-15.875 30.49-9.25 46.49s22.104 26.344 39.417 26.344h300.5c5.891 0 10.667-4.776 10.667-10.667v-21.333c0-5.892-4.776-10.667-10.667-10.667h-300.5L179.5 320h194.854c16.448 0 31.604-9.615 38.615-24.5l74.438-158.177a34.636 34.636 0 0 0 3.26-14.615v-3.021c0-18.947-15.407-34.354-34.354-34.354z" fill="#000000" opacity="1" data-original="#000000" class=""></path><circle cx="149.333" cy="469.333" r="42.667" fill="#000000" opacity="1" data-original="#000000" class=""></circle><circle cx="405.333" cy="469.333" r="42.667" fill="#000000" opacity="1" data-original="#000000" class=""></circle><path d="M288 234.667c64.698 0 117.333-52.635 117.333-117.333S352.698 0 288 0 170.667 52.635 170.667 117.333 223.302 234.667 288 234.667zm-60.875-114.209c4.167-4.167 10.917-4.167 15.083 0l24.458 24.458 67.125-67.125c4.167-4.167 10.917-4.167 15.083 0 4.167 4.167 4.167 10.917 0 15.083l-74.667 74.667a10.634 10.634 0 0 1-7.542 3.125 10.636 10.636 0 0 1-7.542-3.125l-32-32c-4.165-4.166-4.165-10.916.002-15.083z" fill="#000000" opacity="1" data-original="#000000" class=""></path></g></svg>