<svg xmlns="http://www.w3.org/2000/svg" version="1.1" xmlns:xlink="http://www.w3.org/1999/xlink" width="24" height="24" x="0" y="0" viewBox="0 0 64 64" style="enable-background:new 0 0 512 512" xml:space="preserve" class=""><g><path d="M46.29 35a2 2 0 0 1 2 2h2a4 4 0 0 0-4-4H46v-2.43h-2V33h-.29a4 4 0 0 0 0 8H44v4h-.29a2 2 0 0 1-2-2h-2a4 4 0 0 0 4 4H44v2.43h2V47h.29a4 4 0 0 0 0-8H46v-4Zm0 6a2 2 0 0 1 0 4H46v-4ZM44 39h-.29a2 2 0 0 1 0-4H44Z" fill="#000000" opacity="1" data-original="#000000" class=""></path><path d="M51 2.88a13.54 13.54 0 0 1-2.94 6.39 5 5 0 0 0-3.56-1.51 5 5 0 0 0-2.25.56l-8.73.16a8.9 8.9 0 0 0-6.2 2.63L4.85 33.58a5 5 0 0 0 0 7.07L11 46.81a5 5 0 0 0 2.32 3l16.45 9.5A5 5 0 0 0 32 60a4.91 4.91 0 0 0 3 1h19a5 5 0 0 0 5-5V24.23A9 9 0 0 0 56.48 18l-7-7.26A15.26 15.26 0 0 0 53 3.12ZM6.26 35l22.47-22.48a7 7 0 0 1 4.82-2l2.32-.05-3.17.91a9 9 0 0 0-5.3 4.15L11.51 43a5.15 5.15 0 0 0-.44 1l-4.81-4.77a3 3 0 0 1 0-4.23Zm8.08 13.1a3 3 0 0 1-1.1-4.1l15.89-27.51a7 7 0 0 1 4.12-3.23l5.28-1.51-6 6.23A9 9 0 0 0 30 24.23V56a4.72 4.72 0 0 0 .18 1.25ZM57 24.23V56a3 3 0 0 1-3 3H35a3 3 0 0 1-3-3V24.23a7 7 0 0 1 2-4.86l8.38-8.69a3 3 0 0 1 4.26-.06 8.52 8.52 0 0 1-.8.53 2 2 0 1 0 .66 1.92 11.4 11.4 0 0 0 1.55-1l7 7.29A7 7 0 0 1 57 24.23Z" fill="#000000" opacity="1" data-original="#000000" class=""></path></g></svg>