<svg xmlns="http://www.w3.org/2000/svg" version="1.1" xmlns:xlink="http://www.w3.org/1999/xlink" width="24" height="24" x="0" y="0" viewBox="0 0 32 32" style="enable-background:new 0 0 512 512" xml:space="preserve" class=""><g><path d="M1.126 15.515a1 1 0 0 0 0 .97 22 22 0 0 0 6.247 6.728l-4.08 4.08a1 1 0 0 0 0 1.414 1.017 1.017 0 0 0 1.414 0l4.437-4.437A14.649 14.649 0 0 0 16 26c9.479 0 14.658-9.126 14.874-9.515a1 1 0 0 0 .04-.891A18.085 18.085 0 0 0 24.8 8.61l3.9-3.9a1 1 0 1 0-1.414-1.414l-4.279 4.283A15.814 15.814 0 0 0 16 6C6.521 6 1.342 15.126 1.126 15.515Zm27.733.435C27.748 17.686 23.209 24 16 24a12.452 12.452 0 0 1-5.35-1.236l1.879-1.879a5.99 5.99 0 0 0 8.356-8.356l2.479-2.479a15.973 15.973 0 0 1 5.495 5.9ZM12 16a4 4 0 0 1 4-4 3.947 3.947 0 0 1 2.019.567l-5.452 5.452A3.947 3.947 0 0 1 12 16Zm8 0a4 4 0 0 1-4 4 3.947 3.947 0 0 1-2.019-.567l5.452-5.452A3.947 3.947 0 0 1 20 16Zm-4-8a13.943 13.943 0 0 1 5.494 1.092l-2.023 2.023a5.99 5.99 0 0 0-8.356 8.356l-2.281 2.281A20.486 20.486 0 0 1 3.173 16C4.338 14.194 8.859 8 16 8Z" fill="#000000" opacity="1" data-original="#000000" class=""></path></g></svg>